<svg width="50" height="50" viewBox="0 0 50 50" fill="none" xmlns="http://www.w3.org/2000/svg">
<path fill-rule="evenodd" clip-rule="evenodd" d="M18 41.438C18 39.606 17.162 37.874 15.726 36.736C12.23 34.02 10 29.768 10 25C10 16.722 16.722 10 25 10C33.278 10 40 16.722 40 25C40 29.768 37.77 34.02 34.298 36.768C32.872 37.898 32.042 39.618 32.042 41.438C32 44.912 32 50 32 50H18V41.438ZM30.034 42C30.014 43.992 30.006 46.36 30.002 48H20V42H30.034ZM43.656 42.242L42.242 43.656L38 39.414L39.414 38L43.656 42.242ZM6.34399 42.242L7.758 43.656L12 39.414L10.586 38L6.34399 42.242ZM30.172 40H19.87C19.524 38.108 18.502 36.384 16.968 35.17C16.964 35.166 16.958 35.162 16.954 35.158C13.928 32.806 12 29.126 12 25C12 17.826 17.826 12 25 12C32.174 12 38 17.826 38 25C38 29.132 36.066 32.818 33.056 35.2C31.532 36.408 30.518 38.12 30.172 40ZM6 24H0V26H6V24ZM50 24H44V26H50V24ZM43.656 7.758L42.242 6.34399L38 10.586L39.414 12L43.656 7.758ZM6.34399 7.758L7.758 6.34399L12 10.586L10.586 12L6.34399 7.758ZM26 0H24V6H26V0Z" fill="#95ECFD"/>
</svg>
