<svg width="50" height="50" viewBox="0 0 50 50" fill="none" xmlns="http://www.w3.org/2000/svg">
<path fill-rule="evenodd" clip-rule="evenodd" d="M2 46.586L7.29199 41.292L8.70801 42.708L3.414 48H6V50H0V44H2V46.586ZM48 46.586L42.708 41.292L41.292 42.708L46.586 48H44V50H50V44H48V46.586ZM2 32L8 29.468L14 30L22 32L27.082 29.336L28.376 32.456L32.462 33.256L36.55 37.468L40.348 38.46L42 36.312L46 36.972V35.28L47.534 32.926L50 31.522L47.038 24L45.262 23.594L46.666 18.432L40.472 14.674L38 16L34.444 13.146L29.57 9.638L23.294 12L24 19.258L21.684 22L18.834 23L16.482 22L15.448 18.598L12 15.418V13.064L7.50598 15.184L6.31598 15.118L3.70599 19.148L3.54199 22L1.39398 24L0.536011 28V32.46L1.47198 32.79L2 32ZM32.846 31.294C33.246 31.372 33.612 31.57 33.896 31.864L37.596 35.674L39.57 36.19L40.414 35.092C40.864 34.508 41.598 34.218 42.326 34.338L44.108 34.634C44.16 34.476 44.234 34.328 44.324 34.188L45.858 31.834C46.032 31.568 46.266 31.346 46.544 31.188L47.504 30.642L45.564 25.714L44.816 25.544C44.286 25.422 43.826 25.09 43.546 24.622C43.266 24.156 43.19 23.594 43.332 23.07L44.34 19.362L40.41 16.976L38.944 17.762C38.238 18.142 37.374 18.062 36.748 17.56L33.232 14.74L29.272 11.886L25.434 13.332L25.99 19.064C26.042 19.602 25.876 20.136 25.528 20.548L23.212 23.29C22.982 23.564 22.682 23.77 22.346 23.888L19.498 24.888C19.026 25.052 18.512 25.036 18.052 24.84L15.7 23.84C15.154 23.61 14.74 23.148 14.568 22.58C14.568 22.58 13.692 19.7 13.694 19.7L10.644 16.888C10.42 16.682 10.25 16.43 10.14 16.152L8.35797 16.992C8.05797 17.134 7.72598 17.2 7.39398 17.18L7.36401 17.178L5.672 19.792L5.53802 22.116C5.50802 22.63 5.28199 23.112 4.90399 23.464L3.21802 25.034L2.53601 28.212V29.604L7.22198 27.626C7.52398 27.5 7.85203 27.448 8.17603 27.476L14.176 28.008C14.28 28.018 14.384 28.034 14.486 28.06L21.746 29.874L26.154 27.566C26.65 27.304 27.234 27.264 27.762 27.456C28.29 27.648 28.714 28.052 28.928 28.57L29.812 30.698L32.846 31.294ZM6 0H0V6H2V3.414L7.29199 8.70801L8.70801 7.29199L3.414 2H6V0ZM50 6H48V3.414L42.708 8.70801L41.292 7.29199L46.586 2H44V0H50V6Z" fill="#95ECFD"/>
</svg>
