<svg width="50" height="50" viewBox="0 0 50 50" fill="none" xmlns="http://www.w3.org/2000/svg">
<path fill-rule="evenodd" clip-rule="evenodd" d="M30.82 36.82C27.7 38.832 23.984 40 20 40C8.962 40 0 31.038 0 20C0 8.962 8.962 0 20 0C31.038 0 40 8.962 40 20C40 23.984 38.832 27.7 36.82 30.82L50 44L49.376 44.624L49.378 44.626L44.5 49.504L44.498 49.502L44 50L30.82 36.82ZM35.636 32.466L47.174 44.002L44.002 47.174L32.466 35.636C33.636 34.702 34.7 33.636 35.636 32.466ZM20 2C29.934 2 38 10.066 38 20C38 29.934 29.934 38 20 38C10.066 38 2 29.934 2 20C2 10.066 10.066 2 20 2ZM20 4C28.83 4 36 11.17 36 20C36 28.83 28.83 36 20 36C11.17 36 4 28.83 4 20C4 11.17 11.17 4 20 4ZM20 6C27.726 6 34 12.274 34 20C34 27.726 27.726 34 20 34C12.274 34 6 27.726 6 20C6 12.274 12.274 6 20 6ZM18.586 22.17L14.344 17.928L12.93 19.344L17.172 23.586H17.17L18.586 25L20 23.586L27.07 16.514L25.656 15.1L18.586 22.17Z" fill="#95ECFD"/>
</svg>
