<svg width="50" height="50" viewBox="0 0 50 50" fill="none" xmlns="http://www.w3.org/2000/svg">
<path fill-rule="evenodd" clip-rule="evenodd" d="M26 4.02399C36.794 4.52999 45.47 13.204 45.976 24H50V26H45.976C45.47 36.794 36.796 45.47 26 45.976V50H24V45.976C13.206 45.47 4.52999 36.796 4.02399 26H0V24H4.02399C4.52999 13.206 13.204 4.52999 24 4.02399V0H26V4.02399ZM26 6.026V10H24V6.026C14.308 6.53 6.528 14.31 6.026 24H10V26H6.026C6.53 35.692 14.31 43.472 24 43.974V40H26V43.974C35.692 43.47 43.472 35.69 43.974 26H40V24H43.974C43.47 14.308 35.69 6.528 26 6.026ZM25 14C31.072 14 36 18.928 36 25C36 31.072 31.072 36 25 36C18.928 36 14 31.072 14 25C14 18.928 18.928 14 25 14ZM25 16C29.968 16 34 20.032 34 25C34 29.968 29.968 34 25 34C20.032 34 16 29.968 16 25C16 20.032 20.032 16 25 16ZM26 24V22H24V24H22V26H24V28H26V26H28V24H26Z" fill="#95ECFD"/>
</svg>
