<svg width="50" height="51" viewBox="0 0 50 51" fill="none" xmlns="http://www.w3.org/2000/svg">
<path d="M29.9995 8.97754H19.9995V9.97755H29.9995V8.97754Z" fill="#95ECFD"/>
<path d="M29.999 9.06195L25.3525 4.41553L24.6454 5.12263L29.2919 9.76906L29.999 9.06195Z" fill="#95ECFD"/>
<path d="M19.9995 9.12396L24.646 4.47754L25.3531 5.18464L20.7067 9.83106L19.9995 9.12396Z" fill="#95ECFD"/>
<path fill-rule="evenodd" clip-rule="evenodd" d="M40.999 10.9775C43.207 10.9775 44.999 12.7696 44.999 14.9776C44.999 17.1856 43.207 18.9776 40.999 18.9776C38.791 18.9776 36.999 17.1856 36.999 14.9776C36.999 12.7696 38.791 10.9775 40.999 10.9775ZM40.999 11.9775C42.655 11.9775 43.999 13.3216 43.999 14.9776C43.999 16.6336 42.655 17.9776 40.999 17.9776C39.343 17.9776 37.999 16.6336 37.999 14.9776C37.999 13.3216 39.343 11.9775 40.999 11.9775Z" fill="#95ECFD"/>
<path d="M41.4017 21.7285L40.5356 22.2285L48.1855 35.4785L49.0516 34.9785L41.4017 21.7285Z" fill="#95ECFD"/>
<path d="M40.6496 21.7285L41.5156 22.2285L33.8657 35.4786L32.9997 34.9786L40.6496 21.7285Z" fill="#95ECFD"/>
<path d="M50 34.978H32V35.978H50V34.978Z" fill="#95ECFD"/>
<path d="M17.9995 34.978H-0.000488281V35.978H17.9995V34.978Z" fill="#95ECFD"/>
<path d="M47.9995 39.9775H33.9995V40.9775H47.9995V39.9775Z" fill="#95ECFD"/>
<path d="M34.9995 35.978H33.9995V39.978H34.9995V35.978Z" fill="#95ECFD"/>
<path d="M47.9995 35.978H46.9995V39.978H47.9995V35.978Z" fill="#95ECFD"/>
<path d="M41.999 42.978H7.99902V43.978H41.999V42.978Z" fill="#95ECFD"/>
<path d="M41.999 49.978H7.99902V50.978H41.999V49.978Z" fill="#95ECFD"/>
<path d="M42 43.978H41V49.9788H42V43.978Z" fill="#95ECFD"/>
<path d="M8.99902 43.978H7.99902V49.978H8.99902V43.978Z" fill="#95ECFD"/>
<path d="M27.9995 8.97754H26.9995V43.9775H27.9995V8.97754Z" fill="#95ECFD"/>
<path d="M22.9995 8.97754H21.9995V43.9775H22.9995V8.97754Z" fill="#95ECFD"/>
<path d="M41.5149 19.9775H27.999V20.9776H41.5149V19.9775Z" fill="#95ECFD"/>
<path d="M41.4995 18.4102H40.4995V21.9785H41.4995V18.4102Z" fill="#95ECFD"/>
<path fill-rule="evenodd" clip-rule="evenodd" d="M8.99951 10.9775C6.79151 10.9775 4.99951 12.7696 4.99951 14.9776C4.99951 17.1856 6.79151 18.9776 8.99951 18.9776C11.2075 18.9776 12.9995 17.1856 12.9995 14.9776C12.9995 12.7696 11.2075 10.9775 8.99951 10.9775ZM8.99951 11.9775C7.34351 11.9775 5.99951 13.3216 5.99951 14.9776C5.99951 16.6336 7.34351 17.9776 8.99951 17.9776C10.6555 17.9776 11.9995 16.6336 11.9995 14.9776C11.9995 13.3216 10.6555 11.9775 8.99951 11.9775Z" fill="#95ECFD"/>
<path d="M8.59735 21.7285L9.46338 22.2285L1.81348 35.4786L0.947454 34.9786L8.59735 21.7285Z" fill="#95ECFD"/>
<path d="M9.34991 21.7285L8.48389 22.2285L16.1338 35.4785L16.9998 34.9785L9.34991 21.7285Z" fill="#95ECFD"/>
<path d="M1.99951 39.9775H15.9995V40.9775H1.99951V39.9775Z" fill="#95ECFD"/>
<path d="M14.9995 35.978H15.9995V39.978H14.9995V35.978Z" fill="#95ECFD"/>
<path d="M2 35.978H3V39.978H2V35.978Z" fill="#95ECFD"/>
<path d="M8.48458 19.9775H22.0005V20.9776H8.48458V19.9775Z" fill="#95ECFD"/>
<path d="M8.49951 18.4102H9.49951V21.9785H8.49951V18.4102Z" fill="#95ECFD"/>
<path d="M25.4995 0.978027H24.4995V4.97807H25.4995V0.978027Z" fill="#95ECFD"/>
</svg>
