<svg width="50" height="50" viewBox="0 0 50 50" fill="none" xmlns="http://www.w3.org/2000/svg">
<path fill-rule="evenodd" clip-rule="evenodd" d="M26 2.02197C37.9 2.53197 47.468 12.1 47.978 24H50V26H47.978C47.468 37.9 37.9 47.468 26 47.978V50H24V47.978C12.1 47.468 2.53197 37.9 2.02197 26H0V24H2.02197C2.53197 12.1 12.1 2.53197 24 2.02197V0H26V2.02197ZM29.612 34.988L34.622 43.668C31.74 45.158 28.468 46 25 46C21.532 46 18.26 45.158 15.378 43.668L20.388 34.988C21.792 35.638 23.354 36 25 36C26.646 36 28.208 35.638 29.612 34.988ZM35.576 43.142C35.544 43.162 35.51 43.18 35.478 43.2C35.444 43.218 35.412 43.238 35.378 43.256L35.576 43.142ZM16.014 31.342C16.738 32.366 17.634 33.262 18.658 33.986L13.646 42.666C11.12 41.036 8.96398 38.88 7.33398 36.354L16.014 31.342ZM33.986 31.342L42.666 36.354C41.036 38.88 38.88 41.036 36.354 42.666L31.342 33.986C32.366 33.262 33.262 32.366 33.986 31.342ZM43.256 35.378C43.238 35.412 43.218 35.444 43.2 35.478C43.18 35.51 43.162 35.544 43.142 35.576L43.256 35.378ZM6.33197 15.378L15.012 20.388C14.362 21.792 14 23.354 14 25C14 26.646 14.362 28.208 15.012 29.612L6.33197 34.622C4.84197 31.74 4 28.468 4 25C4 21.532 4.84197 18.26 6.33197 15.378ZM43.668 15.378C45.158 18.26 46 21.532 46 25C46 28.468 45.158 31.74 43.668 34.622L34.988 29.612C35.638 28.208 36 26.646 36 25C36 23.354 35.638 21.792 34.988 20.388L43.668 15.378ZM22.102 33.522C23.012 33.832 23.986 34 25 34C26.618 34 28.136 33.572 29.448 32.824L29.532 32.776C30.872 31.992 31.992 30.872 32.776 29.532L32.824 29.448C33.572 28.136 34 26.618 34 25C34 23.382 33.572 21.864 32.824 20.552L32.776 20.468C31.992 19.128 30.872 18.008 29.532 17.224L29.448 17.176C28.136 16.428 26.618 16 25 16C23.382 16 21.864 16.428 20.552 17.176L20.468 17.224C20.342 17.298 20.216 17.376 20.096 17.456L20.084 17.416L20.08 17.42L20.09 17.46L20.01 17.512L20.006 17.492C19.944 17.546 19.88 17.598 19.812 17.646L19.782 17.668L19.738 17.7L19.628 17.782L19.566 17.828L19.544 17.844L19.506 17.874L19.376 17.976L19.324 18.018L19.312 18.028L19.28 18.054L19.088 18.218C18.352 18.86 17.72 19.62 17.224 20.468L17.176 20.552C16.996 20.868 16.832 21.198 16.69 21.54L16.676 21.572L16.65 21.64V21.638C16.624 21.702 16.598 21.768 16.574 21.834L16.51 22.01L16.486 22.076L16.476 22.108L16.464 22.14L16.446 22.198L16.4 22.342C16.14 23.182 16 24.074 16 25C16 26.618 16.428 28.136 17.176 29.448L17.224 29.532C17.434 29.89 17.668 30.234 17.924 30.558L17.972 30.618L18.054 30.72L18.12 30.798L18.166 30.852L18.19 30.882L18.242 30.94L18.28 30.984L18.29 30.994L18.346 31.056C18.96 31.732 19.676 32.312 20.468 32.776L20.552 32.824C20.758 32.942 20.97 33.052 21.188 33.152V33.156L21.228 33.174L21.276 33.194L21.31 33.21L21.4 33.248L21.51 33.298L21.55 33.314L21.572 33.324L21.672 33.362L21.798 33.414L21.826 33.422L21.838 33.428L21.972 33.476L22.09 33.518L22.102 33.522ZM36.354 7.33398C38.88 8.96398 41.036 11.12 42.666 13.646L33.986 18.658C33.262 17.634 32.366 16.738 31.342 16.014L36.354 7.33398ZM13.646 7.33398L18.658 16.014C17.634 16.738 16.738 17.634 16.014 18.658L7.33398 13.646C8.96398 11.12 11.12 8.96398 13.646 7.33398ZM34.622 6.33197L29.612 15.012C28.208 14.362 26.646 14 25 14C23.354 14 21.792 14.362 20.388 15.012L15.378 6.33197C18.26 4.84197 21.532 4 25 4C28.468 4 31.74 4.84197 34.622 6.33197ZM43.142 14.424C43.162 14.456 43.18 14.49 43.2 14.522C43.218 14.556 43.238 14.588 43.256 14.622L43.142 14.424ZM35.378 6.74402C35.412 6.76202 35.444 6.78199 35.478 6.79999C35.51 6.81999 35.544 6.83797 35.576 6.85797L35.378 6.74402Z" fill="#95ECFD"/>
</svg>
