<svg width="54" height="54" viewBox="0 0 54 54" fill="none" xmlns="http://www.w3.org/2000/svg">
<path d="M29.4658 17C28.1215 17 26.8323 17.534 25.8818 18.4845C24.9313 19.4351 24.3973 20.7242 24.3973 22.0685V24.8904H21.6849C21.5487 24.8904 21.4384 25.0008 21.4384 25.137V28.863C21.4384 28.9992 21.5487 29.1096 21.6849 29.1096H24.3973V36.7534C24.3973 36.8896 24.5077 37 24.6438 37H28.3699C28.506 37 28.6164 36.8896 28.6164 36.7534V29.1096H31.3528C31.4659 29.1096 31.5646 29.0326 31.592 28.9228L32.5235 25.1968C32.5624 25.0412 32.4447 24.8904 32.2843 24.8904H28.6164V22.0685C28.6164 21.8432 28.7059 21.6272 28.8652 21.4679C29.0245 21.3087 29.2405 21.2192 29.4658 21.2192H32.3151C32.4512 21.2192 32.5616 21.1088 32.5616 20.9726V17.2466C32.5616 17.1104 32.4512 17 32.3151 17H29.4658Z" fill="#95ECFD"/>
<rect x="0.5" y="0.5" width="53" height="53" stroke="#95ECFD"/>
</svg>
