<svg width="54" height="55" viewBox="0 0 54 55" fill="none" xmlns="http://www.w3.org/2000/svg">
<path d="M29.4659 17.478C28.1216 17.478 26.8324 18.012 25.8819 18.9626C24.9314 19.9131 24.3974 21.2023 24.3974 22.5465V25.3684H21.6851C21.5489 25.3684 21.4385 25.4788 21.4385 25.615V29.341C21.4385 29.4772 21.5489 29.5876 21.6851 29.5876H24.3974V37.2315C24.3974 37.3676 24.5078 37.478 24.644 37.478H28.37C28.5062 37.478 28.6166 37.3676 28.6166 37.2315V29.5876H31.3529C31.4661 29.5876 31.5647 29.5106 31.5921 29.4008L32.5236 25.6748C32.5625 25.5192 32.4448 25.3684 32.2844 25.3684H28.6166V22.5465C28.6166 22.3213 28.706 22.1052 28.8653 21.946C29.0246 21.7867 29.2406 21.6972 29.4659 21.6972H32.3152C32.4514 21.6972 32.5618 21.5868 32.5618 21.4506V17.7246C32.5618 17.5884 32.4514 17.478 32.3152 17.478H29.4659Z" fill="#111111"/>
<rect x="0.5" y="0.978027" width="53" height="53" stroke="#111111"/>
</svg>
