<svg width="54" height="55" viewBox="0 0 54 55" fill="none" xmlns="http://www.w3.org/2000/svg">
<path d="M19.4676 17.478C18.2482 17.478 17.2598 18.4665 17.2598 19.6858C17.2598 20.9051 18.2482 21.8936 19.4676 21.8936C20.6869 21.8936 21.6754 20.9051 21.6754 19.6858C21.6754 18.4665 20.6869 17.478 19.4676 17.478Z" fill="#111111"/>
<path d="M17.3896 23.7118C17.3179 23.7118 17.2598 23.7699 17.2598 23.8417V37.3482C17.2598 37.4199 17.3179 37.478 17.3896 37.478H21.5455C21.6172 37.478 21.6754 37.4199 21.6754 37.3482V23.8417C21.6754 23.7699 21.6172 23.7118 21.5455 23.7118H17.3896Z" fill="#111111"/>
<path d="M24.1429 23.7118C24.0712 23.7118 24.013 23.7699 24.013 23.8417V37.3482C24.013 37.4199 24.0712 37.478 24.1429 37.478H28.2987C28.3705 37.478 28.4286 37.4199 28.4286 37.3482V30.0754C28.4286 29.5588 28.6338 29.0633 28.9992 28.6979C29.3645 28.3326 29.86 28.1274 30.3766 28.1274C30.8933 28.1274 31.3888 28.3326 31.7541 28.6979C32.1195 29.0633 32.3247 29.5588 32.3247 30.0754V37.3482C32.3247 37.4199 32.3828 37.478 32.4546 37.478H36.6104C36.6821 37.478 36.7403 37.4199 36.7403 37.3482V28.3926C36.7403 25.8713 34.5474 23.8988 32.0388 24.1269C31.2652 24.1972 30.5002 24.3895 29.786 24.6956L28.4286 25.2774V23.8417C28.4286 23.7699 28.3705 23.7118 28.2987 23.7118H24.1429Z" fill="#111111"/>
<rect x="0.5" y="0.978027" width="53" height="53" stroke="#111111"/>
</svg>
