<svg width="54" height="54" viewBox="0 0 54 54" fill="none" xmlns="http://www.w3.org/2000/svg">
<path d="M19.4676 17C18.2482 17 17.2598 17.9885 17.2598 19.2078C17.2598 20.4271 18.2482 21.4156 19.4676 21.4156C20.6869 21.4156 21.6754 20.4271 21.6754 19.2078C21.6754 17.9885 20.6869 17 19.4676 17Z" fill="#95ECFD"/>
<path d="M17.3896 23.2338C17.3179 23.2338 17.2598 23.2919 17.2598 23.3636V36.8701C17.2598 36.9419 17.3179 37 17.3896 37H21.5455C21.6172 37 21.6754 36.9419 21.6754 36.8701V23.3636C21.6754 23.2919 21.6172 23.2338 21.5455 23.2338H17.3896Z" fill="#95ECFD"/>
<path d="M24.1429 23.2338C24.0712 23.2338 24.013 23.2919 24.013 23.3636V36.8701C24.013 36.9419 24.0712 37 24.1429 37H28.2987C28.3705 37 28.4286 36.9419 28.4286 36.8701V29.5974C28.4286 29.0807 28.6338 28.5853 28.9992 28.2199C29.3645 27.8546 29.86 27.6494 30.3766 27.6494C30.8933 27.6494 31.3888 27.8546 31.7541 28.2199C32.1195 28.5853 32.3247 29.0807 32.3247 29.5974V36.8701C32.3247 36.9419 32.3828 37 32.4546 37H36.6104C36.6821 37 36.7403 36.9419 36.7403 36.8701V27.9145C36.7403 25.3932 34.5474 23.4208 32.0388 23.6488C31.2652 23.7192 30.5002 23.9115 29.786 24.2176L28.4286 24.7993V23.3636C28.4286 23.2919 28.3705 23.2338 28.2987 23.2338H24.1429Z" fill="#95ECFD"/>
<rect x="0.5" y="0.5" width="53" height="53" stroke="#95ECFD"/>
</svg>
