<svg width="195" height="56" viewBox="0 0 195 56" fill="none" xmlns="http://www.w3.org/2000/svg">
<path d="M42.8099 0.916014H55.6529V19.5398H56V0.518555H42.8099V0.916014ZM0.404959 19.5398V0.916014H13.1901V0.518555H0V19.5398H0.404959ZM13.1901 55.1408H0.404959V36.4602H0V55.4815H13.1901V55.1408ZM55.6529 36.4602V55.1408H42.8099V55.4815H56V36.4602H55.6529Z" fill="#111111"/>
<path d="M12.0782 41.4016C11.0757 41.4016 10.2402 40.4586 10.2402 39.2287C10.2402 38.1627 10.8668 36.9738 11.6187 35.7438L23.6907 14.5889H24.3172L28.1185 33.161L38.7284 14.5889H39.355L44.2005 38.2447C44.5765 39.9256 44.7018 40.0896 46.0802 40.0896C45.2448 41.0736 44.2841 41.4016 43.198 41.4016C41.1094 41.4016 40.4828 39.5157 40.2322 38.3267L36.6399 20.8616L28.5362 35.1699L29.1628 38.2447C29.5387 39.9256 29.664 40.0896 31.0425 40.0896C30.207 41.0736 29.2463 41.4016 28.1602 41.4016C26.0717 41.4016 25.4451 39.5157 25.1945 38.3267L21.6021 20.8616L12.8301 36.3588C12.2453 37.4248 11.8276 39.1877 13.2478 39.1877C14.125 39.9666 13.3313 41.4016 12.0782 41.4016V41.4016Z" fill="#111111"/>
<path d="M76.4515 27.7984H75.3483L68.7431 12.0889V26.0647C68.7431 26.4878 69.0744 26.8846 69.598 26.8846H70.0846C70.3204 26.8846 70.4907 27.0515 70.4907 27.2829C70.4907 27.4953 70.3204 27.6623 70.0846 27.6623H66.454C66.2182 27.6623 66.0479 27.4953 66.0479 27.2829C66.0479 27.0515 66.2182 26.8846 66.454 26.8846H66.9405C67.4641 26.8846 67.7954 26.4878 67.7954 26.0647V11.9105C67.7954 11.4874 67.4641 11.0907 66.9405 11.0907H66.454C66.2182 11.0907 66.0479 10.9235 66.0479 10.6921C66.0479 10.4796 66.2182 10.3127 66.454 10.3127H72.0028L77.3703 23.0314L82.4483 10.3127H87.7992C88.035 10.3127 88.2053 10.4796 88.2053 10.711C88.2053 10.9235 88.035 11.0907 87.7992 11.0907H87.3126C86.789 11.0907 86.458 11.4874 86.458 11.9105L86.4618 26.0647C86.4618 26.4878 86.7928 26.8846 87.3164 26.8846H87.8029C88.0387 26.8846 88.2088 27.0515 88.2088 27.2639C88.2088 27.4953 88.0387 27.6623 87.8029 27.6623H81.3523C81.1165 27.6623 80.9465 27.4953 80.9465 27.2639C80.9465 27.0515 81.1165 26.8846 81.3523 26.8846H81.8389C82.3526 26.8846 82.6817 26.5031 82.6932 26.0876L82.6895 12.1144L76.4515 27.7984ZM102.09 10.0664C107.62 10.0664 111.134 13.9357 111.134 18.9644C111.134 23.993 107.621 27.9275 102.09 27.9275C96.54 27.9275 93.0462 23.9929 93.0462 18.9644C93.0462 13.9359 96.5398 10.0664 102.09 10.0664ZM102.09 27.1349C105.826 27.1349 107.001 23.3875 107.001 18.9642C107.001 14.541 105.826 10.8594 102.09 10.8594C98.3541 10.8594 97.1795 14.5415 97.1795 18.9642C97.1795 23.387 98.3541 27.1349 102.09 27.1349ZM132.018 10.3126C132.254 10.3126 132.424 10.4795 132.424 10.692C132.424 10.9234 132.254 11.0906 132.018 11.0906H131.532C131.008 11.0906 130.677 11.4873 130.677 11.9104V27.662H128.838L118.662 14.1206V26.0646C118.662 26.4877 118.994 26.8845 119.517 26.8845H120.004C120.24 26.8845 120.41 27.0514 120.41 27.2828C120.41 27.4953 120.24 27.6622 120.004 27.6622H116.373C116.137 27.6622 115.967 27.4953 115.967 27.2828C115.967 27.0514 116.137 26.8845 116.373 26.8845H116.86C117.383 26.8845 117.715 26.4877 117.715 26.0646V11.9104C117.715 11.4873 117.383 11.0906 116.86 11.0906H116.373C116.137 11.0906 115.967 10.9234 115.967 10.692C115.967 10.4795 116.137 10.3126 116.373 10.3126H120.172L129.729 22.9853V11.9107C129.729 11.4876 129.398 11.0909 128.874 11.0909H128.388C128.152 11.0909 127.982 10.9237 127.982 10.6923C127.982 10.4798 128.152 10.3129 128.388 10.3129H132.018L132.018 10.3126ZM151.763 10.3126L151.764 14.9815C151.764 15.2129 151.594 15.38 151.358 15.38C151.142 15.38 150.971 15.2129 150.971 14.9815V14.542C150.971 12.7255 149.871 11.0905 147.672 11.0905H146.901C146.409 11.0905 146.05 11.4415 146.05 11.8359L146.054 26.1309C146.054 26.5293 146.408 26.8841 146.905 26.8841H147.391C147.627 26.8841 147.797 27.0511 147.797 27.2635C147.797 27.4949 147.627 27.6618 147.391 27.6618H140.944C140.709 27.6618 140.538 27.4949 140.538 27.2635C140.538 27.0511 140.709 26.8841 140.944 26.8841H141.431C141.923 26.8841 142.282 26.539 142.282 26.1388L142.278 11.8437C142.278 11.4417 141.923 11.0908 141.427 11.0908H140.808C138.535 11.0908 137.361 12.6531 137.361 14.6876V14.9817C137.361 15.2131 137.191 15.3803 136.955 15.3803C136.738 15.3803 136.568 15.2131 136.568 14.9817V10.3126H151.763L151.763 10.3126ZM169.487 22.5948L169.49 22.5946C169.707 22.5946 169.877 22.7617 169.877 22.9932V27.6623H156.321C156.086 27.6623 155.916 27.4954 155.916 27.264C155.916 27.0515 156.086 26.8846 156.321 26.8846H156.808C157.3 26.8846 157.659 26.5337 157.659 26.1393L157.655 11.8442C157.655 11.4459 157.301 11.091 156.805 11.091H156.318C156.082 11.091 155.912 10.9238 155.912 10.7114C155.912 10.4799 156.082 10.313 156.318 10.313H169.84V14.9822C169.84 15.2136 169.67 15.3808 169.434 15.3808C169.218 15.3808 169.048 15.2136 169.048 14.9822V14.5428C169.048 12.7262 167.948 11.0912 165.748 11.0912H162.279C161.786 11.0912 161.428 11.4364 161.428 11.8366V18.2267H162.377C164.397 18.2267 165.111 17.5204 165.111 15.8762V15.7583C165.111 15.5458 165.301 15.3596 165.517 15.3596C165.734 15.3596 165.923 15.5458 165.923 15.7583V21.5113C165.923 21.7238 165.734 21.9099 165.517 21.9099C165.301 21.9099 165.111 21.7428 165.111 21.454V21.3287C165.111 19.7872 164.436 19.0427 162.377 19.0427H161.428V26.1313C161.428 26.5333 161.782 26.8842 162.278 26.8842H165.781C167.981 26.8842 169.081 25.2493 169.081 23.4327V22.9933C169.081 22.7619 169.251 22.5947 169.486 22.5947L169.487 22.5948ZM193.642 26.8843C193.858 26.8843 194.048 27.0512 194.048 27.2826C194.048 27.4951 193.858 27.662 193.642 27.662H186.048C185.831 27.662 185.642 27.4951 185.642 27.2826C185.642 27.0512 185.831 26.8843 186.048 26.8843H187.013C187.56 26.8843 187.88 26.476 187.657 25.9628L186.133 22.3805H179.809L178.339 25.9628C178.151 26.4444 178.448 26.8843 178.983 26.8843H179.949C180.165 26.8843 180.355 27.0512 180.355 27.2826C180.355 27.4951 180.165 27.662 179.949 27.662H175.506C175.29 27.662 175.1 27.4951 175.1 27.2826C175.1 27.0512 175.289 26.8843 175.506 26.8843H176.15C176.847 26.8843 177.149 26.542 177.384 25.9628L183.908 10.1763H185.012L191.737 25.9892C191.944 26.463 192.301 26.8843 193.052 26.8843H193.642H193.642ZM180.127 21.6215H185.802L182.915 14.8264L180.127 21.6215Z" fill="#111111"/>
<path d="M66.1541 45.8396C66.0672 45.8396 66.002 45.4879 66.0889 45.4772C66.6428 45.4026 66.9904 45.1894 66.9904 44.5178V39.6994C66.9904 39.0279 66.6428 38.8147 66.0889 38.74C66.002 38.7294 66.0672 38.3776 66.1541 38.3776H69.13C69.2169 38.3776 69.2821 38.7294 69.1952 38.74C68.7282 38.804 68.2937 38.9532 68.2937 39.6994V44.5178C68.2937 45.264 68.7282 45.4132 69.1952 45.4772C69.2821 45.4879 69.2169 45.8396 69.13 45.8396H66.1541ZM77.3085 45.9462C77.1239 45.9462 77.0261 45.8716 76.9066 45.7437L71.7367 40.435V44.4858C71.7367 45.2107 72.1712 45.328 72.7902 45.4772C72.8771 45.4985 72.8337 45.8396 72.7251 45.8396H70.151C70.0641 45.8396 69.9989 45.5092 70.0967 45.4772C70.5528 45.328 70.9873 45.2427 70.9873 44.4858V40.3497C70.9873 39.5928 70.8678 39.2304 70.5854 38.8573C70.4877 38.7294 70.3899 38.6441 70.3899 38.6121C70.3899 38.5162 70.4551 38.3776 70.6071 38.3776H71.4109C71.5195 38.3776 71.5955 38.3883 71.6715 38.4735L76.7329 43.729V39.7208C76.7329 38.9639 76.2441 38.8786 75.6793 38.74C75.5924 38.7187 75.6359 38.3776 75.7445 38.3776H78.3186C78.4055 38.3776 78.4598 38.7187 78.3729 38.74C77.895 38.8786 77.4823 38.9639 77.4823 39.7208V43.8675C77.4823 44.5711 77.504 45.3493 77.6126 45.7437C77.6561 45.9036 77.4823 45.9462 77.3085 45.9462ZM81.6313 46.0102C80.7407 46.0102 79.383 45.6264 79.5133 45.1574L79.6219 44.763C79.9261 43.6437 80.2845 45.2853 82.0766 45.2853C82.9889 45.2853 83.4342 44.8483 83.4342 44.23C83.4342 43.729 83.1084 43.5158 82.3373 43.0467L81.2837 42.3964C80.1107 41.6716 79.6328 41.2238 79.6328 40.4243C79.6328 39.1131 80.9362 38.207 82.2829 38.207C83.1084 38.207 84.1619 38.5588 84.0425 38.9213L83.9121 39.3263C83.5754 40.3604 83.3039 38.9319 81.8159 38.9319C81.0448 38.9319 80.6429 39.3157 80.6429 39.8807C80.6429 40.3604 80.9362 40.6269 81.6639 41.0639L82.8043 41.7568C83.9556 42.4604 84.4226 42.9401 84.4226 43.7076C84.4226 45.0401 83.0867 46.0102 81.6313 46.0102ZM89.5165 46.0102C87.9851 46.0102 86.269 45.2107 86.269 43.0467V39.6994C86.269 39.0279 85.9215 38.804 85.3893 38.74C85.3024 38.7294 85.3675 38.3776 85.4544 38.3776H88.4195C88.5064 38.3776 88.5716 38.7294 88.4847 38.74C88.0502 38.7933 87.6158 38.9532 87.6158 39.6994V43.1C87.6158 44.5924 88.4956 45.2853 89.6468 45.2853C90.8307 45.2853 91.7756 44.5924 91.7756 43.1V39.6994C91.7756 39.0065 91.3738 38.8147 90.8416 38.74C90.7656 38.7294 90.8199 38.3776 90.9067 38.3776H93.3505C93.4265 38.3776 93.4917 38.7294 93.4048 38.74C92.9704 38.7933 92.5359 38.9532 92.5359 39.6994V43.036C92.5359 44.9975 91.2434 46.0102 89.5165 46.0102ZM102.246 45.5731C102.333 45.5731 102.311 45.861 102.246 45.8823C101.562 46.1061 100.617 46.0742 99.965 45.2533L98.2924 43.1426C97.8253 42.5457 97.2714 42.4604 96.5111 42.4497V44.5178C96.5111 45.264 97.0325 45.3919 97.7276 45.4772C97.8036 45.4879 97.7493 45.8396 97.6624 45.8396H94.3715C94.2846 45.8396 94.2194 45.4879 94.3063 45.4772C94.8602 45.4026 95.2078 45.1894 95.2078 44.5178V39.7634C95.2078 39.0598 94.8276 38.8573 94.3063 38.7187C94.2194 38.6974 94.2737 38.3456 94.3715 38.3563C94.7951 38.4096 95.273 38.4202 95.6205 38.4202C96.4242 38.4202 97.1737 38.3563 97.695 38.3563C99.335 38.3563 100.432 39.0172 100.432 40.3284C100.432 41.565 99.4111 42.1726 98.4987 42.2259V42.2792C98.9332 42.2792 99.2482 42.4604 99.7261 43.0467L101.344 45.0401C101.681 45.4559 102.007 45.5731 102.246 45.5731ZM96.8261 41.9594C98.4444 41.9594 99.0635 41.6822 99.0635 40.6162C99.0635 39.4756 98.325 38.9106 97.3583 38.9106C96.7175 38.9106 96.5111 39.1664 96.5111 39.7634V41.9594H96.8261ZM110.848 45.4772C111 45.4985 110.957 45.8396 110.826 45.8396H107.959C107.818 45.8396 107.807 45.4985 107.926 45.4772C108.328 45.4026 108.763 45.264 108.361 44.3472L108.241 44.0807C108.133 43.8249 107.948 43.8036 107.622 43.8036H105.406C105.081 43.8036 104.896 43.8249 104.787 44.0807L104.679 44.3472C104.299 45.264 104.711 45.4026 105.233 45.4772C105.374 45.4985 105.341 45.8396 105.2 45.8396H102.854C102.724 45.8396 102.691 45.4985 102.821 45.4772C103.267 45.4026 103.527 45.2533 103.929 44.3472L105.765 40.2111C106.188 39.273 106.319 38.836 106.319 38.4309C106.319 38.3669 107.079 38.1964 107.112 38.271L109.762 44.3366C110.153 45.2427 110.413 45.4132 110.848 45.4772ZM107.546 43.2066C107.698 43.2066 107.861 43.1853 107.796 43.036L106.525 40.0512L105.244 43.036C105.178 43.1853 105.341 43.2066 105.493 43.2066H107.546ZM118.853 45.9462C118.668 45.9462 118.57 45.8716 118.451 45.7437L113.281 40.435V44.4858C113.281 45.2107 113.715 45.328 114.334 45.4772C114.421 45.4985 114.378 45.8396 114.269 45.8396H111.695C111.608 45.8396 111.543 45.5092 111.641 45.4772C112.097 45.328 112.531 45.2427 112.531 44.4858V40.3497C112.531 39.5928 112.412 39.2304 112.13 38.8573C112.032 38.7294 111.934 38.6441 111.934 38.6121C111.934 38.5162 111.999 38.3776 112.151 38.3776H112.955C113.064 38.3776 113.14 38.3883 113.216 38.4735L118.277 43.729V39.7208C118.277 38.9639 117.788 38.8786 117.223 38.74C117.137 38.7187 117.18 38.3776 117.289 38.3776H119.863C119.95 38.3776 120.004 38.7187 119.917 38.74C119.439 38.8786 119.026 38.9639 119.026 39.7208V43.8675C119.026 44.5711 119.048 45.3493 119.157 45.7437C119.2 45.9036 119.026 45.9462 118.853 45.9462ZM125.282 46.0102C123.458 46.0102 120.992 44.9655 120.992 42.2472C120.992 40.403 122.144 38.207 125.185 38.207C126.445 38.207 127.531 38.5908 127.4 38.9639L127.259 39.3796C126.868 40.5203 126.445 39.0598 124.511 39.0598C122.958 39.0598 122.198 40.0512 122.198 41.5863C122.198 43.9848 124.055 44.9868 125.543 44.9868C125.739 44.9868 126.727 44.8376 127.292 44.4858C127.379 44.4325 127.607 44.6777 127.542 44.7736C127.075 45.4452 125.619 46.0102 125.282 46.0102ZM128.476 45.861C128.367 45.8716 128.324 45.4985 128.411 45.4772C129.04 45.3173 129.529 45.2214 129.529 44.4325V39.6994C129.529 39.0172 129.084 38.836 128.617 38.7187C128.53 38.6974 128.584 38.3456 128.671 38.3563C129.464 38.4416 130.833 38.4202 131.495 38.4202C132.483 38.4202 133.2 38.3776 134.091 38.3563C134.352 38.3563 134.352 38.5268 134.297 38.772L134.037 39.7847C134.004 39.934 133.732 39.934 133.689 39.7847C133.526 39.2624 133.2 38.9639 131.843 38.9639C131.082 38.9639 130.833 39.1558 130.833 39.7101V41.4477C130.833 41.7249 130.974 41.7782 131.191 41.7782H131.43C132.31 41.7782 133.07 41.6929 133.515 41.2985C133.624 41.2025 133.863 41.2238 133.765 41.437L133.146 42.7802C133.059 42.9721 132.896 42.9508 132.777 42.7909C132.527 42.4497 131.973 42.3112 131.343 42.3112H131.191C130.974 42.3112 130.833 42.3645 130.833 42.6416V44.4325C130.833 45.0401 131.093 45.264 131.995 45.264C133.635 45.264 134.286 44.5285 134.547 44.1234C134.623 44.0061 134.916 44.0594 134.916 44.2406C134.916 44.7843 134.449 45.861 133.765 45.861C133.157 45.829 132.559 45.797 131.647 45.797C130.648 45.797 129.464 45.765 128.476 45.861ZM142.541 41.7782C143.551 41.7782 144.529 42.4924 144.529 43.6863C144.529 45.0082 143.301 45.861 141.487 45.861C140.966 45.861 140.358 45.797 139.554 45.797C138.87 45.797 138.349 45.8077 137.849 45.861C137.751 45.8716 137.697 45.4985 137.784 45.4772C138.414 45.3173 138.902 45.2214 138.902 44.4325V39.6994C138.902 39.0172 138.457 38.836 137.99 38.7187C137.903 38.6974 137.958 38.3456 138.044 38.3563C138.49 38.4096 139.011 38.4202 139.359 38.4202C140.228 38.4202 140.868 38.3563 141.346 38.3563C142.747 38.3563 143.899 38.9319 143.909 40.1045C143.92 40.968 143.301 41.565 142.541 41.7142V41.7782ZM140.977 38.9106C140.401 38.9106 140.206 39.1025 140.206 39.6994V41.5969H141.324C142.106 41.5969 142.563 41.2132 142.563 40.3923C142.563 39.3796 141.868 38.9106 140.977 38.9106ZM141.455 45.3066C142.411 45.3066 143.127 45.0295 143.127 43.9208C143.127 42.7482 142.335 42.1299 141.324 42.1299H140.206V44.4325C140.206 45.0188 140.51 45.3066 141.455 45.3066ZM153.543 45.5731C153.63 45.5731 153.609 45.861 153.543 45.8823C152.859 46.1061 151.914 46.0742 151.262 45.2533L149.59 43.1426C149.123 42.5457 148.569 42.4604 147.809 42.4497V44.5178C147.809 45.264 148.33 45.3919 149.025 45.4772C149.101 45.4879 149.047 45.8396 148.96 45.8396H145.669C145.582 45.8396 145.517 45.4879 145.604 45.4772C146.158 45.4026 146.505 45.1894 146.505 44.5178V39.7634C146.505 39.0598 146.125 38.8573 145.604 38.7187C145.517 38.6974 145.571 38.3456 145.669 38.3563C146.093 38.4096 146.57 38.4202 146.918 38.4202C147.722 38.4202 148.471 38.3563 148.992 38.3563C150.633 38.3563 151.73 39.0172 151.73 40.3284C151.73 41.565 150.709 42.1726 149.796 42.2259V42.2792C150.231 42.2792 150.546 42.4604 151.024 43.0467L152.642 45.0401C152.979 45.4559 153.304 45.5731 153.543 45.5731ZM148.124 41.9594C149.742 41.9594 150.361 41.6822 150.361 40.6162C150.361 39.4756 149.622 38.9106 148.656 38.9106C148.015 38.9106 147.809 39.1664 147.809 39.7634V41.9594H148.124ZM158.279 46.0102C156.02 46.0102 154.358 44.3686 154.358 42.1513C154.358 39.9979 155.922 38.207 158.301 38.207C160.571 38.207 162.221 39.838 162.221 42.0553C162.221 44.2193 160.668 46.0102 158.279 46.0102ZM158.702 45.2853C159.658 45.2853 160.929 44.667 160.929 42.6523C160.929 40.4989 159.441 38.9319 157.877 38.9319C156.921 38.9319 155.661 39.5502 155.661 41.5543C155.661 43.729 157.149 45.2853 158.702 45.2853ZM166.403 45.4772C166.49 45.4879 166.425 45.8396 166.338 45.8396H163.362C163.275 45.8396 163.21 45.4879 163.297 45.4772C163.851 45.4026 164.198 45.1894 164.198 44.5178V39.6994C164.198 39.0279 163.851 38.8147 163.297 38.74C163.21 38.7294 163.275 38.3776 163.362 38.3776H166.338C166.425 38.3776 166.49 38.7294 166.403 38.74C165.936 38.804 165.502 38.9532 165.502 39.6994V44.5178C165.502 45.264 165.936 45.4132 166.403 45.4772ZM171.019 45.5731C171.106 45.5731 171.084 45.861 171.019 45.8823C170.335 46.1061 169.368 46.0315 168.706 45.328L165.632 42.066L168.087 39.5928C168.608 39.0705 168.575 38.836 168 38.74C167.869 38.7187 167.924 38.3776 168.01 38.3776H170.509C170.595 38.3776 170.661 38.7294 170.552 38.74C170.074 38.804 169.509 39.0172 168.825 39.7101L166.903 41.6502L169.705 44.6031C170.411 45.3386 170.791 45.5731 171.019 45.5731ZM171.942 45.861C171.834 45.8716 171.79 45.4985 171.877 45.4772C172.507 45.3173 172.996 45.2214 172.996 44.4325V39.6994C172.996 39.0172 172.55 38.836 172.083 38.7187C171.997 38.6974 172.051 38.3456 172.138 38.3563C172.931 38.4416 174.299 38.4202 174.962 38.4202C175.95 38.4202 176.667 38.3776 177.557 38.3563C177.818 38.3563 177.818 38.5268 177.764 38.772L177.503 39.7847C177.471 39.934 177.199 39.934 177.156 39.7847C176.993 39.2624 176.667 38.9639 175.309 38.9639C174.549 38.9639 174.299 39.1558 174.299 39.7101V41.4477C174.299 41.7249 174.44 41.7782 174.658 41.7782H174.896C175.776 41.7782 176.537 41.6929 176.982 41.2985C177.09 41.2025 177.329 41.2238 177.232 41.437L176.613 42.7802C176.526 42.9721 176.363 42.9508 176.243 42.7909C175.993 42.4497 175.44 42.3112 174.81 42.3112H174.658C174.44 42.3112 174.299 42.3645 174.299 42.6416V44.4325C174.299 45.0401 174.56 45.264 175.461 45.264C177.101 45.264 177.753 44.5285 178.014 44.1234C178.09 44.0061 178.383 44.0594 178.383 44.2406C178.383 44.7843 177.916 45.861 177.232 45.861C176.623 45.829 176.026 45.797 175.114 45.797C174.114 45.797 172.931 45.765 171.942 45.861ZM187.235 45.5731C187.322 45.5731 187.3 45.861 187.235 45.8823C186.551 46.1061 185.606 46.0742 184.954 45.2533L183.281 43.1426C182.814 42.5457 182.26 42.4604 181.5 42.4497V44.5178C181.5 45.264 182.021 45.3919 182.717 45.4772C182.793 45.4879 182.738 45.8396 182.651 45.8396H179.36C179.274 45.8396 179.208 45.4879 179.295 45.4772C179.849 45.4026 180.197 45.1894 180.197 44.5178V39.7634C180.197 39.0598 179.817 38.8573 179.295 38.7187C179.208 38.6974 179.263 38.3456 179.36 38.3563C179.784 38.4096 180.262 38.4202 180.609 38.4202C181.413 38.4202 182.163 38.3563 182.684 38.3563C184.324 38.3563 185.421 39.0172 185.421 40.3284C185.421 41.565 184.4 42.1726 183.488 42.2259V42.2792C183.922 42.2792 184.237 42.4604 184.715 43.0467L186.333 45.0401C186.67 45.4559 186.996 45.5731 187.235 45.5731ZM181.815 41.9594C183.433 41.9594 184.052 41.6822 184.052 40.6162C184.052 39.4756 183.314 38.9106 182.347 38.9106C181.706 38.9106 181.5 39.1664 181.5 39.7634V41.9594H181.815ZM190.233 46.0102C189.342 46.0102 187.984 45.6264 188.115 45.1574L188.223 44.763C188.527 43.6437 188.886 45.2853 190.678 45.2853C191.59 45.2853 192.035 44.8483 192.035 44.23C192.035 43.729 191.71 43.5158 190.938 43.0467L189.885 42.3964C188.712 41.6716 188.234 41.2238 188.234 40.4243C188.234 39.1131 189.537 38.207 190.884 38.207C191.71 38.207 192.763 38.5588 192.644 38.9213L192.513 39.3263C192.177 40.3604 191.905 38.9319 190.417 38.9319C189.646 38.9319 189.244 39.3157 189.244 39.8807C189.244 40.3604 189.537 40.6269 190.265 41.0639L191.406 41.7568C192.557 42.4604 193.024 42.9401 193.024 43.7076C193.024 45.0401 191.688 46.0102 190.233 46.0102Z" fill="#111111"/>
</svg>
