<svg width="54" height="54" viewBox="0 0 54 54" fill="none" xmlns="http://www.w3.org/2000/svg">
<path d="M21.8596 19.2611C25.2801 18.9638 28.7199 18.9638 32.1404 19.2611L33.7883 19.4043C34.8853 19.4997 35.8249 20.154 36.3118 21.09C36.374 21.2098 36.3274 21.3548 36.2126 21.4258L29.3753 25.6584C27.9089 26.5662 26.0599 26.5852 24.5751 25.7079L17.6921 21.6406C17.5809 21.5749 17.5298 21.4397 17.58 21.3206C18.0253 20.2626 19.0266 19.5074 20.2117 19.4043L21.8596 19.2611Z" fill="#111111"/>
<path d="M17.5744 23.4722C17.4042 23.3717 17.187 23.4799 17.1672 23.6766C16.8903 26.4216 16.9573 29.1926 17.3682 31.925C17.5848 33.3655 18.7605 34.4698 20.2117 34.596L21.8596 34.7392C25.2801 35.0366 28.7199 35.0366 32.1404 34.7392L33.7883 34.596C35.2395 34.4698 36.4152 33.3655 36.6318 31.925C37.0546 29.113 37.1133 26.2601 36.8077 23.4367C36.7863 23.2386 36.5655 23.1324 36.3961 23.2372L30.2368 27.0501C28.2529 28.2783 25.7512 28.304 23.7424 27.117L17.5744 23.4722Z" fill="#111111"/>
<rect x="0.5" y="0.5" width="53" height="53" stroke="#111111"/>
</svg>
