<svg width="54" height="54" viewBox="0 0 54 54" fill="none" xmlns="http://www.w3.org/2000/svg">
<path fill-rule="evenodd" clip-rule="evenodd" d="M17.1005 36.4521C17.0183 36.7504 17.29 37.0256 17.5893 36.9475L22.2161 35.739C23.6766 36.5301 25.3209 36.9503 26.9951 36.9503H27C32.5092 36.9503 37 32.4855 37 26.9972C37 24.3371 35.9616 21.8352 34.074 19.9562C32.1863 18.0774 29.6776 17.0391 26.9999 17.0391C21.4908 17.0391 17 21.5039 17 26.9923C16.9994 28.7382 17.4602 30.4537 18.3363 31.9663L17.1005 36.4521ZM23.8306 22.2307C24.0143 22.2357 24.218 22.2456 24.4118 22.6758C24.5403 22.9622 24.7568 23.4894 24.9332 23.9189C25.0704 24.2531 25.1833 24.5281 25.2116 24.5844C25.2761 24.7129 25.3159 24.8612 25.2315 25.0342C25.2215 25.0546 25.2121 25.0742 25.203 25.093C25.1353 25.2335 25.0871 25.3336 24.9732 25.4644C24.9263 25.5182 24.8775 25.5772 24.8289 25.6359C24.7434 25.7392 24.6585 25.8419 24.5856 25.9144C24.4565 26.0429 24.3223 26.1814 24.4713 26.4385C24.6205 26.6956 25.1421 27.5411 25.9121 28.2234C26.7399 28.9604 27.4597 29.271 27.8236 29.428C27.8942 29.4585 27.9515 29.4832 27.9934 29.5041C28.2518 29.6326 28.4058 29.6128 28.5548 29.4398C28.7039 29.2667 29.2006 28.6882 29.3745 28.4311C29.5434 28.174 29.7173 28.2136 29.9558 28.3026C30.1942 28.3915 31.4659 29.0145 31.7242 29.1431C31.7753 29.1685 31.823 29.1914 31.8673 29.2126C32.047 29.2988 32.1692 29.3574 32.221 29.4447C32.2855 29.5535 32.2855 30.0677 32.072 30.6709C31.8534 31.2742 30.8002 31.8527 30.3233 31.8972C30.2782 31.9014 30.2332 31.9068 30.187 31.9124C29.7499 31.9653 29.1951 32.0324 27.2185 31.2544C24.7829 30.2966 23.1751 27.9202 22.85 27.4398C22.8244 27.4018 22.8067 27.3757 22.7973 27.3631L22.7918 27.3557C22.6439 27.1578 21.7391 25.9472 21.7391 24.6981C21.7391 23.5031 22.3278 22.8809 22.5963 22.5971C22.6134 22.5791 22.6291 22.5625 22.6433 22.5472C22.8817 22.2901 23.16 22.2258 23.3338 22.2258C23.5077 22.2258 23.6816 22.2258 23.8306 22.2307Z" fill="#95ECFD"/>
<rect x="0.5" y="0.5" width="53" height="53" stroke="#95ECFD"/>
</svg>
