<svg width="54" height="55" viewBox="0 0 54 55" fill="none" xmlns="http://www.w3.org/2000/svg">
<path fill-rule="evenodd" clip-rule="evenodd" d="M17.1005 36.9301C17.0183 37.2284 17.29 37.5037 17.5893 37.4255L22.2161 36.217C23.6766 37.0081 25.3209 37.4283 26.9951 37.4283H27C32.5092 37.4283 37 32.9635 37 27.4752C37 24.8151 35.9616 22.3132 34.074 20.4343C32.1863 18.5554 29.6776 17.5171 26.9999 17.5171C21.4908 17.5171 17 21.9819 17 27.4703C16.9994 29.2163 17.4602 30.9317 18.3363 32.4444L17.1005 36.9301ZM23.8306 22.7088C24.0143 22.7137 24.218 22.7236 24.4118 23.1538C24.5403 23.4402 24.7568 23.9674 24.9332 24.3969C25.0704 24.7311 25.1833 25.0061 25.2116 25.0624C25.2761 25.1909 25.3159 25.3392 25.2315 25.5123C25.2215 25.5327 25.2121 25.5522 25.203 25.571C25.1353 25.7116 25.0871 25.8116 24.9732 25.9425C24.9263 25.9962 24.8775 26.0552 24.8289 26.1139C24.7434 26.2172 24.6585 26.3199 24.5856 26.3924C24.4565 26.5209 24.3223 26.6594 24.4713 26.9165C24.6205 27.1736 25.1421 28.0191 25.9121 28.7015C26.7399 29.4384 27.4597 29.749 27.8236 29.906C27.8942 29.9365 27.9515 29.9612 27.9934 29.9821C28.2518 30.1106 28.4058 30.0909 28.5548 29.9178C28.7039 29.7447 29.2006 29.1662 29.3745 28.9091C29.5434 28.6521 29.7173 28.6916 29.9558 28.7806C30.1942 28.8696 31.4659 29.4926 31.7242 29.6211C31.7753 29.6465 31.823 29.6694 31.8673 29.6907C32.047 29.7768 32.1692 29.8354 32.221 29.9228C32.2855 30.0315 32.2855 30.5458 32.072 31.149C31.8534 31.7522 30.8002 32.3307 30.3233 32.3752C30.2782 32.3794 30.2332 32.3849 30.187 32.3905C29.7499 32.4433 29.1951 32.5105 27.2185 31.7324C24.7829 30.7746 23.1751 28.3982 22.85 27.9178C22.8244 27.8799 22.8067 27.8537 22.7973 27.8411L22.7918 27.8337C22.6439 27.6358 21.7391 26.4252 21.7391 25.1761C21.7391 23.9811 22.3278 23.3589 22.5963 23.0751C22.6134 23.0571 22.6291 23.0405 22.6433 23.0252C22.8817 22.7681 23.16 22.7038 23.3338 22.7038C23.5077 22.7038 23.6816 22.7038 23.8306 22.7088Z" fill="#111111"/>
<rect x="0.5" y="0.978027" width="53" height="53" stroke="#111111"/>
</svg>
